<svg xmlns="http://www.w3.org/2000/svg" viewBox="0 0 78 90"><rect width="78" height="90" fill="none"/><path d="M0,22.5,39,0,78,22.5v45L39,90,0,67.5Z" fill="#44484d"/><path d="M21.38,32.81a.34.34,0,0,1,.36-.36H42a.34.34,0,0,1,.36.36v2a.34.34,0,0,1-.36.37H24.55c-.15,0-.22.07-.22.21v11a.19.19,0,0,0,.22.22h7.18a.34.34,0,0,1,.37.36v2a.35.35,0,0,1-.37.37H24.55c-.15,0-.22.07-.22.21v7.28a.34.34,0,0,1-.36.36H21.75a.36.36,0,0,1-.37-.37v-24Zm23.77,0a.34.34,0,0,1,.36-.36h4.71c4.29,0,6.15,1.85,6.15,6.36,0,3.1-1.06,4.62-2.88,5.43v.07c1.86.58,3.13,2.25,3.13,5.78,0,5.31-2.15,7.1-6.77,7.1H45.51a.34.34,0,0,1-.35-.37v-24Zm4.92,10.33c2.33,0,3.31-.87,3.31-4s-.87-4-3.39-4H48.32a.19.19,0,0,0-.21.21v7.53a.19.19,0,0,0,.22.22h1.74ZM48.32,54.46H50c2.69,0,3.67-1,3.67-4.41s-1.05-4.32-3.56-4.32H48.32c-.15,0-.22.07-.22.21v8.3A.2.2,0,0,0,48.32,54.46ZM36.43,57.55a.34.34,0,0,1-.36-.36V42.64a.2.2,0,0,0-.22-.22H29a.35.35,0,0,1-.37-.36v-2a.34.34,0,0,1,.37-.36h12.8a.34.34,0,0,1,.36.36v2a.34.34,0,0,1-.35.36H39.25a.19.19,0,0,0-.21.21V57.18a.35.35,0,0,1-.37.36H36.43Zm-6.51-4.41.68,1.31,1.46.23-1,1,.23,1.46-1.32-.67-1.32.67.22-1.46-1-1,1.46-.23Z" fill="#fff"/></svg>