<svg xmlns="http://www.w3.org/2000/svg" xmlns:xlink="http://www.w3.org/1999/xlink"><symbol id="subtitle" viewBox="0 0 296 22"><path d="M10.673 21.121c-1.53 0-2.949-.242-4.256-.728a10.345 10.345 0 01-3.36-2.1 9.678 9.678 0 01-2.24-3.192c-.54-1.25-.812-2.623-.812-4.116v-.056c0-1.418.262-2.744.784-3.976a10.126 10.126 0 012.212-3.248 9.935 9.935 0 013.332-2.184C7.64 1 9.05.737 10.561.737c1.736 0 3.23.252 4.48.756a12.244 12.244 0 013.472 2.1L15.321 7.43c-.709-.597-1.437-1.054-2.184-1.372-.728-.317-1.577-.476-2.548-.476-.709 0-1.372.14-1.988.42-.597.28-1.12.663-1.568 1.148a5.601 5.601 0 00-1.456 3.808v.056c0 .784.131 1.512.392 2.184.262.672.626 1.25 1.092 1.736a5.75 5.75 0 001.68 1.12 5.755 5.755 0 002.156.392c1.27 0 2.315-.27 3.136-.812v-2.38H10.17V9.277h9.016v8.82c-1.045.859-2.277 1.577-3.696 2.156-1.418.579-3.024.868-4.816.868zM36.197 1.13H51.96v4.62H41.573v2.968h9.408v4.284h-9.408v3.108H52.1v4.62H36.197V1.13zm32.676 0h5.068l8.064 10.36V1.13h5.376v19.6h-4.76L74.249 9.977V20.73h-5.376V1.13zm35.984 0h15.764v4.62h-10.388v2.968h9.408v4.284h-9.408v3.108h10.528v4.62h-15.904V1.13zm41.692 9.408c.933 0 1.652-.205 2.156-.616.504-.43.756-.998.756-1.708v-.056c0-.784-.261-1.362-.784-1.736-.523-.392-1.241-.588-2.156-.588h-3.556v4.704h3.584zm-9.016-9.408h9.268c1.512 0 2.791.187 3.836.56 1.045.374 1.895.896 2.548 1.568 1.157 1.12 1.736 2.642 1.736 4.564v.056c0 1.512-.364 2.763-1.092 3.752-.728.99-1.708 1.745-2.94 2.268l4.676 6.832h-6.272l-3.948-5.936h-2.38v5.936h-5.432V1.13zm45.661 11.872L181.01 7.43l-2.212 5.572h4.396zM178.434.99h5.236l8.344 19.74h-5.824l-1.428-3.5h-7.56l-1.4 3.5h-5.712L178.434.99zm34.27 4.9h-5.88V1.13h17.192v4.76h-5.88v14.84h-5.432V5.89zm37.608 10.332c.747 0 1.428-.14 2.044-.42a4.797 4.797 0 001.568-1.12 5.457 5.457 0 001.008-1.68 5.59 5.59 0 00.364-2.016v-.056a5.59 5.59 0 00-.364-2.016 5.182 5.182 0 00-1.036-1.68 4.915 4.915 0 00-1.596-1.148 4.622 4.622 0 00-2.044-.448c-.747 0-1.428.14-2.044.42a5.01 5.01 0 00-1.568 1.148 5.113 5.113 0 00-1.008 1.652 6.013 6.013 0 00-.336 2.016v.056c0 .71.121 1.381.364 2.016a5.457 5.457 0 001.008 1.68c.448.486.98.877 1.596 1.176.616.28 1.297.42 2.044.42zm-.056 4.9c-1.512 0-2.912-.261-4.2-.784-1.288-.541-2.399-1.27-3.332-2.184a10.212 10.212 0 01-2.212-3.22 9.997 9.997 0 01-.784-3.948v-.056c0-1.4.261-2.716.784-3.948a9.906 9.906 0 012.24-3.248 10.247 10.247 0 013.36-2.184c1.288-.541 2.688-.812 4.2-.812s2.912.27 4.2.812c1.288.523 2.399 1.242 3.332 2.156a9.849 9.849 0 012.184 3.22 9.71 9.71 0 01.812 3.948v.056c0 1.4-.271 2.726-.812 3.976a9.946 9.946 0 01-2.212 3.248 10.88 10.88 0 01-3.36 2.184c-1.288.523-2.688.784-4.2.784zm36.43-10.584c.933 0 1.652-.205 2.156-.616.504-.43.756-.998.756-1.708v-.056c0-.784-.262-1.362-.784-1.736-.523-.392-1.242-.588-2.156-.588h-3.556v4.704h3.584zM277.67 1.13h9.268c1.512 0 2.79.187 3.836.56 1.045.374 1.894.896 2.548 1.568 1.157 1.12 1.736 2.642 1.736 4.564v.056c0 1.512-.364 2.763-1.092 3.752-.728.99-1.708 1.745-2.94 2.268l4.676 6.832h-6.272l-3.948-5.936h-2.38v5.936h-5.432V1.13z"/></symbol><symbol id="tagline" viewBox="0 0 465 14"><path d="M.58.253h6.463c1.584 0 2.7.396 3.44 1.134.503.505.81 1.17.81 2.035v.036c0 1.458-.83 2.322-1.945 2.81 1.53.503 2.502 1.367 2.502 3.078v.04c0 2.16-1.764 3.48-4.77 3.48H.58V.253zm5.6 5.023c1.062 0 1.657-.36 1.657-1.09v-.04c0-.68-.54-1.08-1.584-1.08h-2.27v2.21H6.18zm.504 4.78c1.061 0 1.673-.41 1.673-1.15v-.03c0-.68-.54-1.13-1.71-1.13H3.983v2.32h2.7v-.01zM26.807.166h3.366l5.37 12.69h-3.75l-.91-2.25h-4.86l-.9 2.25h-3.68l5.37-12.69h-.006zm3.06 7.73l-1.404-3.591-1.422 3.583h2.826v.008zM45.76.255h4.86c4.502 0 7.113 2.593 7.113 6.23v.035c0 3.637-2.65 6.338-7.19 6.338h-4.79V.255h.007zm4.915 9.506c2.09 0 3.48-1.152 3.48-3.188v-.038c0-2.016-1.38-3.186-3.47-3.186h-1.422v6.41h1.42l-.008.002zm17.43-3.17v-.036c0-3.674 2.88-6.555 6.79-6.555 2.22 0 3.78.684 5.12 1.836l-2.06 2.47c-.9-.75-1.8-1.18-3.04-1.18-1.816 0-3.22 1.53-3.22 3.46v.037c0 2.04 1.425 3.5 3.42 3.5.85 0 1.497-.18 2.02-.522V8.055h-2.49v-2.56h5.8v5.673a8.537 8.537 0 01-5.475 1.94c-3.93 0-6.86-2.7-6.86-6.516l-.005-.001zM91.374.255h10.136v2.97h-6.68v1.91h6.051v2.754h-6.05v2h6.77v2.97h-10.23V.253l.003.002zm20.051 10.73l1.943-2.322c1.243.99 2.63 1.513 4.087 1.513.941 0 1.441-.32 1.441-.86v-.03c0-.52-.411-.81-2.121-1.2-2.68-.61-4.75-1.37-4.75-3.96v-.04c0-2.34 1.854-4.033 4.881-4.033 2.14 0 3.814.577 5.184 1.676l-1.747 2.46c-1.15-.81-2.413-1.245-3.53-1.245-.849 0-1.26.36-1.26.813v.036c0 .575.43.827 2.176 1.223 2.901.63 4.701 1.564 4.701 3.924v.04c0 2.572-2.035 4.102-5.096 4.102-2.23 0-4.358-.7-5.906-2.09l-.003-.007zM147.098.255h10.084v3.06h-6.59v2.144h5.959v2.896h-5.959v4.5h-3.5V.255h.006zm20.233 6.337v-.037c0-3.62 2.916-6.555 6.806-6.555 3.889 0 6.769 2.898 6.769 6.518v.037c0 3.618-2.916 6.553-6.806 6.553-3.889 0-6.769-2.898-6.769-6.518v.002zm10.009 0v-.037c0-1.82-1.313-3.404-3.24-3.404-1.908 0-3.187 1.55-3.187 3.367v.037c0 1.817 1.32 3.402 3.23 3.402 1.928 0 3.207-1.548 3.207-3.367l-.01.002zM191.721.255h5.959c1.925 0 3.261.504 4.105 1.368.74.72 1.119 1.692 1.119 2.935v.038c0 1.93-1.029 3.21-2.599 3.87l3.009 4.4h-4.029l-2.54-3.81h-1.53v3.82h-3.49V.255h-.004zm5.797 6.05c1.188 0 1.873-.577 1.873-1.496v-.034c0-.99-.72-1.496-1.89-1.496h-2.289v3.026H197.518zm30.13-6.05h6.463c1.58 0 2.701.396 3.431 1.134.506.505.81 1.17.81 2.035v.03c0 1.45-.826 2.32-1.943 2.81 1.53.5 2.502 1.36 2.502 3.07v.04c0 2.16-1.765 3.47-4.77 3.47h-6.5V.255h.007zm5.599 5.023c1.062 0 1.657-.36 1.657-1.097v-.036c0-.684-.54-1.08-1.58-1.08h-2.269v2.21h2.2l-.008.003zm.504 4.773c1.06 0 1.67-.414 1.67-1.152v-.035c0-.69-.539-1.14-1.709-1.14h-2.67v2.32h2.7l.009.007zM253.872.165h3.362l5.37 12.694h-3.739l-.921-2.25h-4.859l-.901 2.25h-3.67l5.371-12.69-.013-.004zm3.059 7.724l-1.406-3.58-1.42 3.583h2.83l-.004-.003zM272.823.255h4.861c4.502 0 7.113 2.593 7.113 6.23v.035c0 3.637-2.647 6.338-7.185 6.338h-4.789V.255zm4.915 9.506c2.09 0 3.476-1.152 3.476-3.188v-.038c0-2.016-1.387-3.186-3.477-3.186h-1.422v6.41h1.43l-.007.002zm17.422-3.17v-.036c0-3.674 2.88-6.555 6.788-6.555 2.22 0 3.785.684 5.117 1.836l-2.055 2.47c-.899-.75-1.8-1.18-3.04-1.18-1.82 0-3.223 1.53-3.223 3.46v.04c0 2.04 1.421 3.497 3.421 3.497.846 0 1.493-.18 2.016-.522V8.055h-2.485v-2.56h5.794v5.673a8.53 8.53 0 01-5.475 1.94c-3.926 0-6.859-2.7-6.859-6.516l.001-.001zM318.44.255h10.138v2.97h-6.681v1.91h6.051v2.754h-6.051v2h6.771v2.97H318.44V.253v.002zm20.051 10.73l1.944-2.322c1.242.99 2.63 1.513 4.087 1.513.93 0 1.44-.32 1.44-.86v-.03c0-.52-.42-.81-2.13-1.2-2.69-.61-4.759-1.37-4.759-3.96v-.04c0-2.34 1.853-4.033 4.88-4.033 2.142 0 3.815.577 5.185 1.676l-1.741 2.464c-1.15-.81-2.409-1.243-3.522-1.243-.847 0-1.26.36-1.26.813v.036c0 .574.432.826 2.179 1.222 2.897.63 4.698 1.56 4.698 3.92v.037c0 2.573-2.032 4.103-5.094 4.103-2.23 0-4.35-.704-5.899-2.09l-.008-.006zm20.989-5.528c1.206-.125 1.853-.72 1.8-1.69h-1.37V.252h3.548v2.863c0 2.665-1.44 3.583-3.69 3.655l-.289-1.314.001.001zm27.844 5.528l1.951-2.322c1.25.99 2.63 1.513 4.09 1.513.94 0 1.44-.32 1.44-.86v-.03c0-.52-.41-.81-2.12-1.2-2.69-.61-4.761-1.37-4.761-3.96v-.04c0-2.34 1.853-4.033 4.881-4.033 2.14 0 3.815.577 5.183 1.676l-1.746 2.467c-1.15-.81-2.411-1.248-3.531-1.248-.85 0-1.259.36-1.259.81v.036c0 .577.43.83 2.177 1.225 2.9.63 4.7 1.566 4.7 3.926v.035c0 2.575-2.031 4.105-5.092 4.105-2.23 0-4.354-.7-5.904-2.09l-.009-.01zm25.78-10.82h3.37l5.371 12.69h-3.746l-.919-2.25h-4.861l-.9 2.25h-3.673L413.115.163l-.011.002zm3.06 7.723l-1.4-3.58-1.419 3.582h2.829l-.01-.002zM432.053.255h3.494v5.11l4.34-5.112h4.139l-4.769 5.42 4.933 7.184h-4.194l-3.17-4.682-1.278 1.423v3.26h-3.492V.252l-.003.003zm22.141 0h10.137v2.97h-6.68v1.91h6.05v2.754h-6.05v2h6.77v2.97h-10.227V.253v.002z"/></symbol><symbol id="title" viewBox="0 0 619 47"><path d="M26.265.738H1.57c-.758 0-1.375.613-1.375 1.37v41.63c0 .756.617 1.373 1.375 1.373h5.785c.73 0 1.375-.645 1.375-1.374V30.268h13.555c.73 0 1.375-.643 1.375-1.375v-5.155c0-.73-.643-1.373-1.375-1.373H8.725V8.641h17.54c.756 0 1.372-.618 1.372-1.375V2.11c0-.758-.616-1.373-1.372-1.373v.001zm63.49 22.25C89.755 10.37 79.522.108 66.94.108c-6.122 0-11.85 2.375-16.13 6.686-4.27 4.304-6.623 10.054-6.623 16.193 0 12.75 9.995 22.75 22.753 22.75 6.135 0 11.874-2.35 16.16-6.63 4.293-4.27 6.656-10 6.656-16.13v.011zM66.94 37.205c-7.84 0-14.218-6.38-14.218-14.22 0-7.91 6.38-14.345 14.218-14.345 7.744 0 14.282 6.568 14.282 14.346 0 7.838-6.406 14.218-14.282 14.218v.001zm77.51 2.303c-3.23-.284-5.946-1.467-8.071-3.52a11.646 11.646 0 01-3.526-7.227c6.39-1.504 11.011-7.346 11.011-13.95 0-7.76-6.399-14.077-14.266-14.077h-18.37c-.757 0-1.372.617-1.372 1.375v41.63c0 .76.615 1.38 1.373 1.38h5.785c.732 0 1.375-.64 1.375-1.37v-14.6h6.63c.523 4.59 2.64 8.88 5.98 12.11 3.7 3.58 8.305 5.47 13.314 5.47h.051a1.356 1.356 0 00.963-.434c.21-.223.3-.5.28-.766l-.01-4.87a1.18 1.18 0 00-1.14-1.128l-.007-.023zm-15.354-18.4h-10.707V8.832h10.707c3.472 0 6.298 2.654 6.298 5.918 0 3.508-2.826 6.36-6.298 6.36v-.002zm15.218 25.424v-.004.004zM210.572.738h-23.886c-.756 0-1.375.614-1.375 1.372v5.156c0 .757.617 1.375 1.375 1.375h7.651v35.097c0 .728.649 1.373 1.379 1.373h5.85c.741 0 1.381-.645 1.381-1.374V8.638h7.647c.76 0 1.374-.618 1.374-1.375V2.11c0-.758-.613-1.373-1.373-1.373l-.023.001zm48.859 43c0 .756.617 1.373 1.374 1.373h5.785c.732 0 1.375-.645 1.375-1.374V2.108c0-.73-.642-1.373-1.375-1.373h-5.785c-.757 0-1.373.614-1.373 1.372v18.74h-16.547V2.108c0-.76-.616-1.373-1.374-1.373h-5.848c-.729 0-1.375.64-1.375 1.37v41.63c0 .725.644 1.37 1.375 1.37h5.848c.757 0 1.375-.617 1.375-1.374v-14.91h16.55v14.917h-.005zm60.055-35.097c.757 0 1.375-.618 1.375-1.375V2.11c0-.758-.618-1.373-1.375-1.373h-24.694c-.758 0-1.375.61-1.375 1.37v41.63c0 .75.617 1.37 1.375 1.37h24.694a1.38 1.38 0 001.375-1.38v-5.15c0-.76-.618-1.38-1.375-1.38h-17.535v-8.38h13.556c.76 0 1.38-.62 1.38-1.38v-5.22c0-.73-.64-1.38-1.37-1.38h-13.561V8.638h17.54l-.01.003zm78.627 24.155c0-5.86-4.78-9.142-7.889-10.28 2.799-1.473 6.629-5.15 6.629-9.97 0-6.732-5.781-11.81-13.447-11.81h-14.399c-.75 0-1.37.615-1.37 1.373v41.63c0 .76.62 1.38 1.38 1.38h15.219c7.92 0 13.89-5.29 13.89-12.31l-.013-.013zM376.102 8.578h6.549c3.078 0 5.225 2.125 5.225 5.165 0 3.176-2.19 5.48-5.22 5.48h-6.549V8.578h-.005zm7.427 28.754h-7.427V26.498h6.673c3.01 0 6.229 2.126 6.229 5.292 0 3.107-2.409 5.542-5.479 5.542h.004zm73.522 7.183c.237-.374.255-.846.051-1.294L437.732.898c-.197-.39-.496-.79-1.231-.79h-.627c-.558 0-.968.266-1.231.795l-19.557 42.318c-.206.448-.191.92.051 1.294.242.378.67.596 1.181.596h5.471c1.303 0 1.824-.96 1.986-1.364l3.03-6.69h18.569l3.031 6.69c.43.86.889 1.35 1.979 1.35h5.46c.51 0 .941-.22 1.185-.6l.022.018zm-27-14.792l5.98-13.424 6.103 13.43h-12.09l.007-.006zM491.266.738h-14.905c-.71 0-1.313.628-1.313 1.372v41.628c0 .743.604 1.373 1.313 1.373h14.903c12.261 0 22.241-9.982 22.241-22.25 0-12.2-9.981-22.124-22.251-22.124l.012.001zm-.757 36.343h-6.987V8.704h6.987c7.96 0 13.97 6.088 13.97 14.156 0 8.24-5.876 14.22-13.97 14.22v.001zm78.09-16.41h-14.77c-.797 0-1.373.577-1.373 1.374v4.967c0 .734.603 1.312 1.372 1.312h7.545v7.305c-1.219.49-3.896 1.52-7.3 1.52-7.706 0-13.969-6.38-13.969-14.22 0-7.94 6.235-14.4 13.904-14.4 3.466 0 6.709 1.25 9.373 3.6.637.57 1.314.57 1.887-.01l3.896-4.08c.271-.27.411-.632.391-1.01-.021-.367-.19-.72-.48-1.01-4.46-3.8-9.94-5.89-15.46-5.89-12.548 0-22.758 10.26-22.758 22.88 0 6.116 2.359 11.833 6.649 16.094 4.27 4.25 9.993 6.593 16.106 6.593 9.064 0 15.622-4.072 15.7-4.12.373-.28.573-.68.573-1.15V22.048c0-.747-.6-1.376-1.307-1.376h.021zm48.831-12.03c.76 0 1.375-.618 1.375-1.375V2.11c0-.758-.62-1.373-1.381-1.373h-24.69c-.76 0-1.38.61-1.38 1.37v41.63c0 .75.62 1.37 1.37 1.37h24.69c.76 0 1.373-.62 1.373-1.38v-5.15c0-.76-.62-1.38-1.378-1.38H599.88v-8.38h13.557c.757 0 1.371-.62 1.371-1.38v-5.22c0-.73-.64-1.38-1.373-1.38h-13.55V8.638h17.537l.008.003z"/></symbol></svg>