<svg xmlns="http://www.w3.org/2000/svg" viewBox="0 0 234.99 16.96"><path d="M3.57,5.24H5.82l3.57,8.45H6.9l-.62-1.5H3l-.6,1.5H0Zm2,5.14L4.68,8l-.95,2.39H5.61ZM144.77,5.3h6.76v2h-4.45V8.55h4v1.84h-4v1.33h4.51v2h-6.82V5.3Zm11,0H158l3.45,4.44V5.3h2.31v8.4h-2l-3.59-4.61V13.7h-2.31V5.3Zm12.42,0h3.24c3,0,4.73,1.73,4.73,4.15v0c0,2.42-1.76,4.22-4.78,4.22H168.2V5.3Zm3.27,6.33a2.06,2.06,0,0,0,2.32-2.12v0a2.07,2.07,0,0,0-2.32-2.12h-.94v4.27Zm8.91-6.33h6.75v2h-4.45V8.55h4v1.83h-4v1.34h4.51v2h-6.81V5.3Zm13.91-.06h2.24l3.57,8.45h-2.49L197,12.2h-3.24l-.6,1.5h-2.45l3.58-8.46Zm2,5.14L195.39,8l-.95,2.39h1.88Zm5.73-5.08h2.6l1.91,5.31,1.9-5.31H211l-3.4,8.45h-2.16L202,5.3Zm12,4.22v0a4.4,4.4,0,0,1,4.53-4.37,4.35,4.35,0,0,1,4.51,4.34v0a4.52,4.52,0,0,1-9,0Zm6.67,0v0a2.19,2.19,0,0,0-2.16-2.27,2.14,2.14,0,0,0-2.12,2.24v0a2.18,2.18,0,0,0,2.14,2.27,2.14,2.14,0,0,0,2.14-2.24Zm6.59-4.22h4a3.72,3.72,0,0,1,2.74.91,2.62,2.62,0,0,1,.74,2v0A2.67,2.67,0,0,1,233,10.77l2,2.92H232.3l-1.69-2.54h-1V13.7h-2.33V5.3Zm3.86,4c.79,0,1.25-.38,1.25-1v0c0-.66-.48-1-1.26-1H229.6v2Zm-112-5c0,1-.42,1.26-1.09,1.26S117,5.35,117,4.3V0H115.4V4.24a2.66,2.66,0,1,0,5.32,0V0h-1.56V4.29Zm6.44-1L127.33,0h-1.71l-.88,1.8L123.87,0h-1.72l1.74,3.34L122,6.83h1.72l1-2,1,2h1.72ZM83,.13l4.07,10.22L91.19.13h4.49L88.49,17H85.63L78.56.13H83Zm28.1,3.7H103.8V6.65h5.73v3.7H103.8v2.91h7.33V17H99.69V.13h11.44v3.7ZM74.31,17H78.8L71.73.13H68.87L61.68,17h4.49l1.15-2.9h5.84L74.31,17ZM68.5,10.53l1.75-4.37L72,10.53H68.5ZM36.66,8.4A4.47,4.47,0,0,0,39.1,4.6c0-2.53-2.33-4.47-5.17-4.47H26.51V17H34.3c2.86,0,5.24-2,5.24-4.64A4.23,4.23,0,0,0,36.66,8.4Zm-6.4-4.81H33.5a1.63,1.63,0,0,1,1.69,1.63A1.72,1.72,0,0,1,33.5,7H30.26Zm3.56,9.93H30.26V10.08h3.32a1.92,1.92,0,0,1,2,1.69,1.75,1.75,0,0,1-1.73,1.75ZM58.31,17,54,10.61a5.19,5.19,0,0,0,3.37-5A5.17,5.17,0,0,0,52.21.13H44V17h3.86V10.85h1.9L53.89,17ZM47.87,3.72h4A1.93,1.93,0,0,1,53.8,5.64a2,2,0,0,1-1.91,2h-4Z" fill="#fff"/></svg>