<svg viewBox="0 0 296 22" fill="none" xmlns="http://www.w3.org/2000/svg">
<path d="M10.6734 21.1212C9.14274 21.1212 7.72407 20.8785 6.41741 20.3932C5.12941 19.8892 4.00941 19.1892 3.05741 18.2932C2.10541 17.3972 1.35874 16.3332 0.817406 15.1012C0.276073 13.8505 0.00540632 12.4785 0.00540632 10.9852V10.9292C0.00540632 9.51052 0.26674 8.18519 0.789406 6.95319C1.33074 5.70252 2.06807 4.61985 3.00141 3.70519C3.93474 2.77185 5.04541 2.04385 6.33341 1.52119C7.64007 0.998519 9.04941 0.737186 10.5614 0.737186C12.2974 0.737186 13.7907 0.989186 15.0414 1.49319C16.3107 1.99719 17.4681 2.69719 18.5134 3.59319L15.3214 7.42919C14.6121 6.83185 13.8841 6.37452 13.1374 6.05719C12.4094 5.73985 11.5601 5.58119 10.5894 5.58119C9.88007 5.58119 9.21741 5.72119 8.60141 6.00119C8.00407 6.28119 7.48141 6.66385 7.03341 7.14919C6.58541 7.63452 6.23074 8.20385 5.96941 8.85719C5.70807 9.51052 5.57741 10.2105 5.57741 10.9572V11.0132C5.57741 11.7972 5.70807 12.5252 5.96941 13.1972C6.23074 13.8692 6.59474 14.4479 7.06141 14.9332C7.54674 15.3999 8.10674 15.7732 8.74141 16.0532C9.39474 16.3145 10.1134 16.4452 10.8974 16.4452C12.1667 16.4452 13.2121 16.1745 14.0334 15.6332V13.2532H10.1694V9.27719H19.1854V18.0972C18.1401 18.9559 16.9081 19.6745 15.4894 20.2532C14.0707 20.8319 12.4654 21.1212 10.6734 21.1212ZM36.1969 1.12919H51.9609V5.74919H41.5729V8.71719H50.9809V13.0012H41.5729V16.1092H52.1009V20.7292H36.1969V1.12919ZM68.8727 1.12919H73.9407L82.0047 11.4892V1.12919H87.3807V20.7292H82.6207L74.2487 9.97719V20.7292H68.8727V1.12919ZM104.857 1.12919H120.621V5.74919H110.233V8.71719H119.641V13.0012H110.233V16.1092H120.761V20.7292H104.857V1.12919ZM146.549 10.5372C147.482 10.5372 148.201 10.3319 148.705 9.92119C149.209 9.49185 149.461 8.92252 149.461 8.21319V8.15719C149.461 7.37319 149.2 6.79452 148.677 6.42119C148.154 6.02919 147.436 5.83319 146.521 5.83319H142.965V10.5372H146.549ZM137.533 1.12919H146.801C148.313 1.12919 149.592 1.31585 150.637 1.68919C151.682 2.06252 152.532 2.58519 153.185 3.25719C154.342 4.37719 154.921 5.89852 154.921 7.82119V7.87719C154.921 9.38919 154.557 10.6399 153.829 11.6292C153.101 12.6185 152.121 13.3745 150.889 13.8972L155.565 20.7292H149.293L145.345 14.7932H145.289H142.965V20.7292H137.533V1.12919ZM183.194 13.0012L181.01 7.42919L178.798 13.0012H183.194ZM178.434 0.989186H183.67L192.014 20.7292H186.19L184.762 17.2292H177.202L175.802 20.7292H170.09L178.434 0.989186ZM212.704 5.88919H206.824V1.12919H224.016V5.88919H218.136V20.7292H212.704V5.88919ZM250.312 16.2212C251.059 16.2212 251.74 16.0812 252.356 15.8012C252.972 15.5212 253.495 15.1479 253.924 14.6812C254.353 14.1959 254.689 13.6359 254.932 13.0012C255.175 12.3665 255.296 11.6945 255.296 10.9852V10.9292C255.296 10.2199 255.175 9.54785 254.932 8.91319C254.689 8.27852 254.344 7.71852 253.896 7.23319C253.448 6.74785 252.916 6.36519 252.3 6.08519C251.684 5.78652 251.003 5.63719 250.256 5.63719C249.509 5.63719 248.828 5.77719 248.212 6.05719C247.615 6.33719 247.092 6.71985 246.644 7.20519C246.215 7.67185 245.879 8.22252 245.636 8.85719C245.412 9.49185 245.3 10.1639 245.3 10.8732V10.9292C245.3 11.6385 245.421 12.3105 245.664 12.9452C245.907 13.5799 246.243 14.1399 246.672 14.6252C247.12 15.1105 247.652 15.5025 248.268 15.8012C248.884 16.0812 249.565 16.2212 250.312 16.2212ZM250.256 21.1212C248.744 21.1212 247.344 20.8599 246.056 20.3372C244.768 19.7959 243.657 19.0679 242.724 18.1532C241.791 17.2385 241.053 16.1652 240.512 14.9332C239.989 13.7012 239.728 12.3852 239.728 10.9852V10.9292C239.728 9.52919 239.989 8.21319 240.512 6.98119C241.053 5.73052 241.8 4.64785 242.752 3.73319C243.704 2.79985 244.824 2.07185 246.112 1.54919C247.4 1.00785 248.8 0.737186 250.312 0.737186C251.824 0.737186 253.224 1.00785 254.512 1.54919C255.8 2.07185 256.911 2.79052 257.844 3.70519C258.777 4.61985 259.505 5.69319 260.028 6.92519C260.569 8.15719 260.84 9.47319 260.84 10.8732V10.9292C260.84 12.3292 260.569 13.6545 260.028 14.9052C259.505 16.1372 258.768 17.2199 257.816 18.1532C256.864 19.0679 255.744 19.7959 254.456 20.3372C253.168 20.8599 251.768 21.1212 250.256 21.1212ZM286.686 10.5372C287.619 10.5372 288.338 10.3319 288.842 9.92119C289.346 9.49185 289.598 8.92252 289.598 8.21319V8.15719C289.598 7.37319 289.336 6.79452 288.814 6.42119C288.291 6.02919 287.572 5.83319 286.658 5.83319H283.102V10.5372H286.686ZM277.67 1.12919H286.938C288.45 1.12919 289.728 1.31585 290.774 1.68919C291.819 2.06252 292.668 2.58519 293.322 3.25719C294.479 4.37719 295.058 5.89852 295.058 7.82119V7.87719C295.058 9.38919 294.694 10.6399 293.966 11.6292C293.238 12.6185 292.258 13.3745 291.026 13.8972L295.702 20.7292H289.43L285.482 14.7932H285.426H283.102V20.7292H277.67V1.12919Z" fill="#9DF7FF"/>
</svg>
