<svg viewBox="0 0 465 14" fill="none" xmlns="http://www.w3.org/2000/svg">
<path d="M0.579498 0.253H7.0435C8.6275 0.253 9.7435 0.649 10.4835 1.387C10.9865 1.892 11.2935 2.557 11.2935 3.422V3.458C11.2935 4.916 10.4635 5.78 9.3475 6.268C10.8775 6.771 11.8505 7.635 11.8505 9.346V9.386C11.8505 11.546 10.0855 12.866 7.0805 12.866H0.580498V0.255L0.579498 0.253ZM6.1795 5.276C7.2415 5.276 7.8365 4.916 7.8365 4.186V4.146C7.8365 3.466 7.2965 3.066 6.2525 3.066H3.9835V5.276H6.1795ZM6.6835 10.056C7.7455 10.056 8.3575 9.646 8.3575 8.906V8.876C8.3575 8.196 7.8175 7.746 6.6475 7.746H3.9835V10.066H6.6835V10.056ZM26.8075 0.166H30.1745L35.5445 12.856H31.7945L30.8845 10.606H26.0245L25.1245 12.856H21.4445L26.8145 0.166H26.8075ZM29.8675 7.896L28.4635 4.305L27.0415 7.888H29.8685L29.8675 7.896ZM45.7595 0.255H50.6195C55.1215 0.255 57.7325 2.848 57.7325 6.485V6.52C57.7325 10.157 55.0825 12.858 50.5425 12.858H45.7525V0.255H45.7595ZM50.6745 9.761C52.7645 9.761 54.1545 8.609 54.1545 6.573V6.535C54.1545 4.519 52.7745 3.349 50.6845 3.349H49.2635V9.759H50.6835L50.6745 9.761ZM68.1045 6.591V6.555C68.1045 2.881 70.9845 0 74.8945 0C77.1145 0 78.6745 0.684 80.0145 1.836L77.9545 4.306C77.0545 3.556 76.1545 3.126 74.9145 3.126C73.0995 3.126 71.6945 4.656 71.6945 6.586V6.623C71.6945 8.663 73.1195 10.123 75.1145 10.123C75.9645 10.123 76.6115 9.943 77.1345 9.601V8.055H74.6445V5.495H80.4445V11.168C78.9024 12.4347 76.9652 13.1212 74.9695 13.108C71.0395 13.108 68.1095 10.408 68.1095 6.592L68.1045 6.591ZM91.3735 0.255H101.51V3.225H94.8305V5.135H100.881V7.889H94.8305V9.889H101.601V12.859H91.3705V0.253L91.3735 0.255ZM111.425 10.985L113.368 8.663C114.611 9.653 115.998 10.176 117.455 10.176C118.396 10.176 118.896 9.856 118.896 9.316V9.286C118.896 8.766 118.485 8.476 116.775 8.086C114.095 7.476 112.025 6.716 112.025 4.126V4.086C112.025 1.746 113.879 0.053 116.906 0.053C119.046 0.053 120.72 0.63 122.09 1.729L120.343 4.189C119.193 3.379 117.93 2.944 116.813 2.944C115.964 2.944 115.553 3.304 115.553 3.757V3.793C115.553 4.368 115.983 4.62 117.729 5.016C120.63 5.646 122.43 6.58 122.43 8.94V8.98C122.43 11.552 120.395 13.082 117.334 13.082C115.104 13.082 112.976 12.382 111.428 10.992L111.425 10.985ZM147.098 0.255H157.182V3.315H150.592V5.459H156.551V8.355H150.592V12.855H147.092V0.255H147.098ZM167.331 6.592V6.555C167.331 2.935 170.247 0 174.137 0C178.026 0 180.906 2.898 180.906 6.518V6.555C180.906 10.173 177.99 13.108 174.1 13.108C170.211 13.108 167.331 10.21 167.331 6.59V6.592ZM177.34 6.592V6.555C177.34 4.735 176.027 3.151 174.1 3.151C172.192 3.151 170.913 4.701 170.913 6.518V6.555C170.913 8.372 172.233 9.957 174.143 9.957C176.071 9.957 177.35 8.409 177.35 6.59L177.34 6.592ZM191.721 0.255H197.68C199.605 0.255 200.941 0.759 201.785 1.623C202.525 2.343 202.904 3.315 202.904 4.558V4.596C202.904 6.526 201.875 7.806 200.305 8.466L203.314 12.866H199.285L196.745 9.056H195.215V12.876H191.725V0.255H191.721ZM197.518 6.305C198.706 6.305 199.391 5.728 199.391 4.809V4.775C199.391 3.785 198.671 3.279 197.501 3.279H195.212V6.305H197.512H197.518ZM227.648 0.255H234.111C235.691 0.255 236.812 0.651 237.542 1.389C238.048 1.894 238.352 2.559 238.352 3.424V3.454C238.352 4.904 237.526 5.774 236.409 6.264C237.939 6.764 238.911 7.624 238.911 9.334V9.374C238.911 11.534 237.146 12.844 234.141 12.844H227.641V0.255H227.648ZM233.247 5.278C234.309 5.278 234.904 4.918 234.904 4.181V4.145C234.904 3.461 234.364 3.065 233.324 3.065H231.055V5.275H233.255L233.247 5.278ZM233.751 10.051C234.811 10.051 235.421 9.637 235.421 8.899V8.864C235.421 8.174 234.882 7.724 233.712 7.724H231.042V10.044H233.742L233.751 10.051ZM253.872 0.165H257.234L262.604 12.859H258.865L257.944 10.609H253.085L252.184 12.859H248.514L253.885 0.169L253.872 0.165ZM256.931 7.889L255.525 4.309L254.105 7.892H256.935L256.931 7.889ZM272.823 0.255H277.684C282.186 0.255 284.797 2.848 284.797 6.485V6.52C284.797 10.157 282.15 12.858 277.612 12.858H272.823V0.255H272.823ZM277.738 9.761C279.828 9.761 281.214 8.609 281.214 6.573V6.535C281.214 4.519 279.827 3.349 277.737 3.349H276.315V9.759H277.745L277.738 9.761ZM295.16 6.591V6.555C295.16 2.881 298.04 0 301.948 0C304.168 0 305.733 0.684 307.065 1.836L305.01 4.306C304.111 3.556 303.21 3.126 301.97 3.126C300.15 3.126 298.747 4.656 298.747 6.586V6.626C298.747 8.666 300.168 10.123 302.168 10.123C303.014 10.123 303.661 9.943 304.184 9.601V8.055H301.699V5.495H307.493V11.168C305.952 12.435 304.014 13.1215 302.018 13.108C298.092 13.108 295.159 10.408 295.159 6.592L295.16 6.591ZM318.44 0.255H328.578V3.225H321.897V5.135H327.948V7.889H321.897V9.889H328.668V12.859H318.44V0.253V0.255ZM338.491 10.985L340.435 8.663C341.677 9.653 343.065 10.176 344.522 10.176C345.452 10.176 345.962 9.856 345.962 9.316V9.286C345.962 8.766 345.542 8.476 343.832 8.086C341.142 7.476 339.073 6.716 339.073 4.126V4.086C339.073 1.746 340.926 0.053 343.953 0.053C346.095 0.053 347.768 0.63 349.138 1.729L347.397 4.193C346.247 3.383 344.988 2.95 343.875 2.95C343.028 2.95 342.615 3.31 342.615 3.763V3.799C342.615 4.373 343.047 4.625 344.794 5.021C347.691 5.651 349.492 6.581 349.492 8.941V8.978C349.492 11.551 347.46 13.081 344.398 13.081C342.168 13.081 340.048 12.377 338.499 10.991L338.491 10.985ZM359.48 5.457C360.686 5.332 361.333 4.737 361.28 3.767H359.91V0.252H363.458V3.115C363.458 5.78 362.018 6.698 359.768 6.77L359.479 5.456L359.48 5.457ZM387.324 10.985L389.275 8.663C390.525 9.653 391.905 10.176 393.365 10.176C394.305 10.176 394.805 9.856 394.805 9.316V9.286C394.805 8.766 394.395 8.476 392.685 8.086C389.995 7.476 387.924 6.716 387.924 4.126V4.086C387.924 1.746 389.777 0.053 392.805 0.053C394.945 0.053 396.62 0.63 397.988 1.729L396.242 4.196C395.092 3.386 393.831 2.948 392.711 2.948C391.861 2.948 391.452 3.308 391.452 3.758V3.794C391.452 4.371 391.882 4.624 393.629 5.019C396.529 5.649 398.329 6.585 398.329 8.945V8.98C398.329 11.555 396.298 13.085 393.237 13.085C391.007 13.085 388.883 12.385 387.333 10.995L387.324 10.985ZM413.104 0.165H416.474L421.845 12.855H418.099L417.18 10.605H412.319L411.419 12.855H407.746L413.115 0.163L413.104 0.165ZM416.164 7.888L414.764 4.308L413.345 7.89H416.174L416.164 7.888ZM432.053 0.255H435.547V5.365L439.887 0.253H444.026L439.257 5.673L444.19 12.857H439.996L436.826 8.175L435.548 9.598V12.858H432.056V0.252L432.053 0.255ZM454.194 0.255H464.331V3.225H457.651V5.135H463.701V7.889H457.651V9.889H464.421V12.859H454.194V0.253V0.255Z" fill="#44484D"/>
</svg>
