<svg viewBox="0 0 619 47" fill="none" xmlns="http://www.w3.org/2000/svg">
<path d="M26.2655 0.738185H1.5695C0.812496 0.738185 0.195496 1.35118 0.195496 2.10818V43.7382C0.195496 44.4942 0.812496 45.1112 1.5705 45.1112H7.3555C8.0855 45.1112 8.7305 44.4662 8.7305 43.7372V30.2682H22.2855C23.0155 30.2682 23.6595 29.6252 23.6595 28.8932V23.7382C23.6595 23.0082 23.0175 22.3652 22.2845 22.3652H8.7255V8.64118H26.2655C27.0215 8.64118 27.6375 8.02318 27.6375 7.26618V2.11018C27.6375 1.35218 27.0215 0.737185 26.2645 0.737185L26.2655 0.738185ZM89.7555 22.9882C89.7555 10.3702 79.5205 0.108185 66.9385 0.108185C60.8165 0.108185 55.0885 2.48318 50.8085 6.79418C46.5385 11.0982 44.1855 16.8482 44.1855 22.9872C44.1855 35.7372 54.1815 45.7372 66.9385 45.7372C73.0735 45.7372 78.8125 43.3872 83.0985 39.1072C87.3925 34.8372 89.7555 29.1072 89.7555 22.9772V22.9882ZM66.9385 37.2052C59.0985 37.2052 52.7205 30.8252 52.7205 22.9852C52.7205 15.0752 59.1005 8.64018 66.9385 8.64018C74.6825 8.64018 81.2205 15.2082 81.2205 22.9862C81.2205 30.8242 74.8155 37.2042 66.9385 37.2042V37.2052ZM144.449 39.5082C141.219 39.2242 138.503 38.0412 136.378 35.9882C134.382 34.0745 133.132 31.5126 132.852 28.7612C139.242 27.2572 143.863 21.4152 143.863 14.8112C143.863 7.05118 137.464 0.734185 129.597 0.734185H111.227C110.47 0.734185 109.855 1.35118 109.855 2.10918V43.7392C109.855 44.4992 110.47 45.1192 111.228 45.1192H117.013C117.745 45.1192 118.388 44.4792 118.388 43.7492V29.1492H125.018C125.541 33.7392 127.658 38.0292 130.998 41.2592C134.698 44.8392 139.303 46.7292 144.312 46.7292H144.363C144.544 46.7249 144.723 46.6842 144.888 46.6097C145.054 46.5351 145.203 46.4282 145.326 46.2952C145.536 46.0722 145.626 45.7952 145.606 45.5292L145.596 40.6592C145.583 40.3623 145.458 40.0813 145.247 39.8723C145.036 39.6632 144.754 39.5414 144.456 39.5312L144.449 39.5082ZM129.095 21.1082H118.388V8.83218H129.095C132.567 8.83218 135.393 11.4862 135.393 14.7502C135.393 18.2582 132.567 21.1102 129.095 21.1102V21.1082ZM144.313 46.5322V46.5282V46.5322ZM210.572 0.738185H186.686C185.93 0.738185 185.311 1.35218 185.311 2.11018V7.26618C185.311 8.02318 185.928 8.64118 186.686 8.64118H194.337V43.7382C194.337 44.4662 194.986 45.1112 195.716 45.1112H201.566C202.307 45.1112 202.947 44.4662 202.947 43.7372V8.63818H210.594C211.354 8.63818 211.968 8.02018 211.968 7.26319V2.11018C211.968 1.35218 211.355 0.737185 210.595 0.737185L210.572 0.738185ZM259.431 43.7382C259.431 44.4942 260.048 45.1112 260.805 45.1112H266.59C267.322 45.1112 267.965 44.4662 267.965 43.7372V2.10818C267.965 1.37818 267.323 0.735185 266.59 0.735185H260.805C260.048 0.735185 259.432 1.34918 259.432 2.10718V20.8472H242.885V2.10818C242.885 1.34818 242.269 0.735185 241.511 0.735185H235.663C234.934 0.735185 234.288 1.37518 234.288 2.10518V43.7352C234.288 44.4602 234.932 45.1052 235.663 45.1052H241.511C242.268 45.1052 242.886 44.4882 242.886 43.7312V28.8212H259.436V43.7382H259.431ZM319.486 8.64118C320.243 8.64118 320.861 8.02318 320.861 7.26618V2.11018C320.861 1.35218 320.243 0.737185 319.486 0.737185H294.792C294.034 0.737185 293.417 1.34718 293.417 2.10718V43.7372C293.417 44.4872 294.034 45.1072 294.792 45.1072H319.486C319.851 45.1059 320.2 44.9599 320.458 44.7012C320.716 44.4426 320.861 44.0923 320.861 43.7272V38.5772C320.861 37.8172 320.243 37.1972 319.486 37.1972H301.951V28.8172H315.507C316.267 28.8172 316.887 28.1972 316.887 27.4372V22.2172C316.887 21.4872 316.247 20.8372 315.517 20.8372H301.956V8.63818H319.496L319.486 8.64118ZM398.113 32.7962C398.113 26.9362 393.333 23.6542 390.224 22.5162C393.023 21.0432 396.853 17.3662 396.853 12.5462C396.853 5.81418 391.072 0.736185 383.406 0.736185H369.007C368.257 0.736185 367.637 1.35118 367.637 2.10918V43.7392C367.637 44.4992 368.257 45.1192 369.017 45.1192H384.236C392.156 45.1192 398.126 39.8292 398.126 32.8092L398.113 32.7962ZM376.102 8.57819H382.651C385.729 8.57819 387.876 10.7032 387.876 13.7432C387.876 16.9192 385.686 19.2232 382.656 19.2232H376.107V8.57819H376.102ZM383.529 37.3322H376.102V26.4982H382.775C385.785 26.4982 389.004 28.6242 389.004 31.7902C389.004 34.8972 386.595 37.3322 383.525 37.3322H383.529ZM457.051 44.5152C457.288 44.1412 457.306 43.6692 457.102 43.2212L437.732 0.898185C437.535 0.508185 437.236 0.108185 436.501 0.108185H435.874C435.316 0.108185 434.906 0.374185 434.643 0.903185L415.086 43.2212C414.88 43.6692 414.895 44.1412 415.137 44.5152C415.379 44.8932 415.807 45.1112 416.318 45.1112H421.789C423.092 45.1112 423.613 44.1512 423.775 43.7472L426.805 37.0572H445.374L448.405 43.7472C448.835 44.6072 449.294 45.0972 450.384 45.0972H455.844C456.354 45.0972 456.785 44.8772 457.029 44.4972L457.051 44.5152ZM430.051 29.7232L436.031 16.2992L442.134 29.7292H430.044L430.051 29.7232ZM491.266 0.738185H476.361C475.651 0.738185 475.048 1.36618 475.048 2.11018V43.7382C475.048 44.4812 475.652 45.1112 476.361 45.1112H491.264C503.525 45.1112 513.505 35.1292 513.505 22.8612C513.505 10.6612 503.524 0.737185 491.254 0.737185L491.266 0.738185ZM490.509 37.0812H483.522V8.70418H490.509C498.469 8.70418 504.479 14.7922 504.479 22.8602C504.479 31.1002 498.603 37.0802 490.509 37.0802V37.0812ZM568.599 20.6712H553.829C553.032 20.6712 552.456 21.2482 552.456 22.0452V27.0122C552.456 27.7462 553.059 28.3242 553.828 28.3242H561.373V35.6292C560.154 36.1192 557.477 37.1492 554.073 37.1492C546.367 37.1492 540.104 30.7692 540.104 22.9292C540.104 14.9892 546.339 8.52918 554.008 8.52918C557.474 8.52918 560.717 9.77918 563.381 12.1292C564.018 12.6992 564.695 12.6992 565.268 12.1192L569.164 8.03919C569.435 7.76919 569.575 7.40718 569.555 7.02918C569.534 6.66218 569.365 6.30918 569.075 6.01918C564.615 2.21918 559.135 0.129185 553.615 0.129185C541.067 0.129185 530.857 10.3892 530.857 23.0092C530.857 29.1252 533.216 34.8422 537.506 39.1032C541.776 43.3532 547.499 45.6962 553.612 45.6962C562.676 45.6962 569.234 41.6242 569.312 41.5762C569.685 41.2962 569.885 40.8962 569.885 40.4262V22.0482C569.885 21.3012 569.285 20.6722 568.578 20.6722L568.599 20.6712ZM617.43 8.64118C618.19 8.64118 618.805 8.02318 618.805 7.26618V2.11018C618.805 1.35218 618.185 0.737185 617.424 0.737185H592.734C591.974 0.737185 591.354 1.34718 591.354 2.10718V43.7372C591.354 44.4872 591.974 45.1072 592.724 45.1072H617.414C618.174 45.1072 618.787 44.4872 618.787 43.7272V38.5772C618.787 37.8172 618.167 37.1972 617.409 37.1972H599.88V28.8172H613.437C614.194 28.8172 614.808 28.1972 614.808 27.4372V22.2172C614.808 21.4872 614.168 20.8372 613.435 20.8372H599.885V8.63818H617.422L617.43 8.64118Z" fill="white"/>
</svg>
